<svg width="16" height="15" viewBox="0 0 16 15" fill="none" xmlns="http://www.w3.org/2000/svg">
<path fill-rule="evenodd" clip-rule="evenodd" d="M2.5944 2.00518C2.52929 2.00028 2.43894 1.99984 2.2695 1.99984H1.16667C0.798477 1.99984 0.5 1.70136 0.5 1.33317C0.5 0.964984 0.798477 0.666507 1.16667 0.666507H2.2695C2.27578 0.666507 2.28207 0.666506 2.28835 0.666505C2.43146 0.666488 2.57315 0.66647 2.69458 0.67562C2.82971 0.685801 2.9867 0.709715 3.14911 0.782161C3.37767 0.884118 3.57293 1.04835 3.71254 1.25606C3.81174 1.40366 3.8622 1.55423 3.89538 1.68561C3.9252 1.80368 3.94946 1.94328 3.97397 2.08427C3.97504 2.09046 3.97612 2.09666 3.9772 2.10285L4.13605 3.01623L12.812 3.27305C13.152 3.2831 13.4458 3.29179 13.6878 3.31844C13.9436 3.34661 14.1971 3.39957 14.4404 3.52916C14.809 3.72552 15.1068 4.03233 15.2922 4.40655C15.4145 4.65352 15.46 4.90854 15.4805 5.16503C15.5 5.40768 15.5 5.70161 15.5 6.04174V6.09091C15.5 6.41056 15.5 6.68783 15.4821 6.91776C15.4631 7.1616 15.4213 7.40379 15.3095 7.6411C15.1395 8.00231 14.8653 8.30436 14.5221 8.50839C14.2967 8.64244 14.0597 8.70745 13.8188 8.74984C13.5917 8.7898 13.3157 8.8165 12.9975 8.84728L6.50826 9.47527C6.18213 9.50685 5.89956 9.5342 5.66381 9.53835C5.41403 9.54274 5.1636 9.52334 4.91219 9.43098C4.53514 9.29247 4.20854 9.04364 3.97491 8.71688C3.81913 8.499 3.73395 8.26271 3.67188 8.02072C3.6133 7.79233 3.56467 7.51264 3.50854 7.18984L2.66358 2.3313C2.63455 2.16437 2.61864 2.07542 2.60265 2.01212C2.60208 2.00987 2.60153 2.00773 2.601 2.00571C2.59891 2.00553 2.59672 2.00536 2.5944 2.00518ZM4.36923 4.35705L4.81796 6.93724C4.8795 7.29107 4.9195 7.51826 4.96341 7.68946C5.00529 7.85275 5.03842 7.91187 5.05953 7.94139C5.1374 8.05031 5.24627 8.13326 5.37195 8.17943C5.40602 8.19194 5.47181 8.20819 5.64036 8.20522C5.81708 8.20211 6.04674 8.18037 6.40421 8.14578L12.8451 7.52247C13.1941 7.4887 13.4178 7.46657 13.5877 7.43668C13.7495 7.40821 13.8099 7.38065 13.8407 7.36234C13.9551 7.29433 14.0465 7.19364 14.1032 7.07324C14.1184 7.04081 14.1401 6.97804 14.1528 6.81425C14.1662 6.6423 14.1667 6.41742 14.1667 6.06684C14.1667 5.69451 14.1662 5.4546 14.1515 5.27171C14.1374 5.09671 14.1136 5.0311 14.0974 4.99838C14.0356 4.87364 13.9363 4.77136 13.8135 4.70591C13.7812 4.68874 13.7164 4.66298 13.5418 4.64376C13.3595 4.62367 13.1197 4.61607 12.7475 4.60506L4.36923 4.35705Z" fill="white"/>
<path fill-rule="evenodd" clip-rule="evenodd" d="M6.16667 11.6665C5.79848 11.6665 5.5 11.965 5.5 12.3332C5.5 12.7014 5.79848 12.9998 6.16667 12.9998C6.53486 12.9998 6.83333 12.7014 6.83333 12.3332C6.83333 11.965 6.53486 11.6665 6.16667 11.6665ZM4.16667 12.3332C4.16667 11.2286 5.0621 10.3332 6.16667 10.3332C7.27124 10.3332 8.16667 11.2286 8.16667 12.3332C8.16667 13.4377 7.27124 14.3332 6.16667 14.3332C5.0621 14.3332 4.16667 13.4377 4.16667 12.3332Z" fill="white"/>
<path fill-rule="evenodd" clip-rule="evenodd" d="M12.5 11.6665C12.1318 11.6665 11.8333 11.965 11.8333 12.3332C11.8333 12.7014 12.1318 12.9998 12.5 12.9998C12.8682 12.9998 13.1667 12.7014 13.1667 12.3332C13.1667 11.965 12.8682 11.6665 12.5 11.6665ZM10.5 12.3332C10.5 11.2286 11.3954 10.3332 12.5 10.3332C13.6046 10.3332 14.5 11.2286 14.5 12.3332C14.5 13.4377 13.6046 14.3332 12.5 14.3332C11.3954 14.3332 10.5 13.4377 10.5 12.3332Z" fill="white"/>
</svg>
