<svg width="31" height="31" viewBox="0 0 31 31" fill="none" xmlns="http://www.w3.org/2000/svg">
<circle cx="15.0467" cy="15.0467" r="14.5467" fill="white" stroke="#13395B"/>
<path fill-rule="evenodd" clip-rule="evenodd" d="M13.4364 11.9424H15.7649V13.1023C16.1003 12.4352 16.9605 11.8359 18.2526 11.8359C20.7297 11.8359 21.3177 13.1637 21.3177 15.6V20.1122H18.81V16.1549C18.81 14.7675 18.4745 13.985 17.6206 13.985C16.4363 13.985 15.9442 14.8283 15.9442 16.1543V20.1122H13.4364V11.9424ZM9.13617 20.0056H11.644V11.8359H9.13617V20.0056ZM12.0032 9.17196C12.0033 9.38216 11.9616 9.59028 11.8806 9.78423C11.7995 9.97817 11.6807 10.1541 11.5311 10.3017C11.2279 10.603 10.8175 10.7717 10.3901 10.7707C9.96336 10.7704 9.55391 10.6021 9.25027 10.3023C9.10119 10.1542 8.98281 9.9781 8.90191 9.78413C8.821 9.59016 8.77917 9.38213 8.77881 9.17196C8.77881 8.74751 8.94808 8.34125 9.2509 8.04157C9.55427 7.74136 9.96389 7.57305 10.3907 7.57324C10.8183 7.57324 11.2283 7.74189 11.5311 8.04157C11.8333 8.34125 12.0032 8.74751 12.0032 9.17196Z" fill="#13395B"/>
</svg>
