<svg width="59" height="46" viewBox="0 0 59 46" fill="none" xmlns="http://www.w3.org/2000/svg">
<path opacity="0.2" d="M27.0506 33.4046C27.057 34.998 26.7268 36.5741 26.0827 38.0247C25.4386 39.4754 24.4958 40.7663 23.3189 41.8092C20.7934 44.1684 17.4745 45.436 14.0567 45.3468C9.71794 45.3468 6.29219 43.8008 3.77948 40.7089C1.26939 37.6345 -0.0717033 33.7356 0.0029575 29.7294C0.0029575 20.138 2.57289 12.9202 7.71274 8.07609C12.8526 3.23197 18.5423 0.550127 24.7817 0.0305688V10.5516C21.6375 10.8944 18.6608 12.175 16.2211 14.2344C14.9656 15.196 13.9313 16.4278 13.1911 17.843C12.4509 19.2581 12.0229 20.8222 11.9371 22.4251C12.9733 21.9083 14.1132 21.6467 15.2658 21.661C18.9926 21.661 21.8884 22.7434 23.9533 24.9083C24.9964 26.0418 25.8077 27.3774 26.3396 28.8364C26.8714 30.2954 27.1132 31.8485 27.0506 33.4046ZM58.7705 33.4046C58.7783 34.9983 58.4488 36.5748 57.8046 38.0257C57.1604 39.4765 56.2168 40.7673 55.0387 41.8092C52.5133 44.1684 49.1943 45.436 45.7766 45.3468C41.4477 45.3468 38.0493 43.8008 35.5814 40.7089C33.1015 37.6199 31.7784 33.7272 31.8497 29.7294C31.8497 20.138 34.3922 12.9202 39.4774 8.07609C44.5625 3.23197 50.2447 0.539933 56.524 0V10.5211C53.3866 10.8771 50.4203 12.1683 47.9932 14.2344C46.7283 15.1903 45.6846 16.4198 44.9364 17.8355C44.1883 19.2511 43.754 20.8181 43.6644 22.4251C44.6979 21.9082 45.8354 21.6465 46.9856 21.661C50.7074 21.661 53.6033 22.7434 55.6731 24.9083C56.7163 26.0415 57.5271 27.3771 58.0578 28.8364C58.5885 30.2956 58.8283 31.8489 58.763 33.4046H58.7705Z" fill="#CEEFF0"/>
</svg>
