<svg width="31" height="31" viewBox="0 0 31 31" fill="none" xmlns="http://www.w3.org/2000/svg">
<circle cx="15.3172" cy="15.0467" r="14.5467" fill="white" stroke="#13395B"/>
<g clip-path="url(#clip0_6616_49)">
<path d="M22.1307 10.9135C21.6421 11.13 21.1172 11.2763 20.5654 11.3424C21.1347 11.0018 21.5607 10.4656 21.7638 9.83392C21.2289 10.1517 20.6434 10.3753 20.0329 10.4951C19.6223 10.0568 19.0786 9.76623 18.486 9.6686C17.8934 9.57097 17.2851 9.67171 16.7556 9.95519C16.2261 10.2387 15.8051 10.689 15.5578 11.2364C15.3105 11.7837 15.2508 12.3973 15.388 12.982C14.3041 12.9276 13.2438 12.6459 12.2758 12.1552C11.3079 11.6644 10.4539 10.9756 9.76936 10.1335C9.5353 10.5373 9.40072 11.0054 9.40072 11.5039C9.40046 11.9527 9.51098 12.3947 9.72248 12.7905C9.93398 13.1864 10.2399 13.5239 10.6131 13.7732C10.1803 13.7594 9.757 13.6424 9.37848 13.432V13.4671C9.37844 14.0966 9.59618 14.7067 9.99475 15.1939C10.3933 15.6811 10.9482 16.0154 11.5652 16.1401C11.1636 16.2488 10.7427 16.2648 10.334 16.1869C10.5081 16.7285 10.8472 17.2022 11.3038 17.5415C11.7605 17.8808 12.3118 18.0688 12.8806 18.0793C11.915 18.8373 10.7225 19.2485 9.49493 19.2467C9.27747 19.2467 9.0602 19.234 8.84424 19.2086C10.0903 20.0098 11.5408 20.435 13.0222 20.4333C18.037 20.4333 20.7784 16.2799 20.7784 12.6778C20.7784 12.5607 20.7755 12.4425 20.7702 12.3255C21.3034 11.9399 21.7637 11.4623 22.1295 10.9153L22.1307 10.9135Z" fill="#13395B"/>
</g>
<defs>
<clipPath id="clip0_6616_49">
<rect width="14.0436" height="14.0436" fill="white" transform="translate(8.2959 8.0249)"/>
</clipPath>
</defs>
</svg>
