<svg width="31" height="31" viewBox="0 0 31 31" fill="none" xmlns="http://www.w3.org/2000/svg">
<circle cx="15.953" cy="15.0467" r="14.5467" fill="white" stroke="#13395B"/>
<path d="M21.1491 11.6688C19.4037 8.97794 15.8401 8.17795 13.0765 9.85065C10.3857 11.5233 9.51296 15.1596 11.2584 17.8505L11.4038 18.0687L10.822 20.2504L13.0038 19.6686L13.222 19.8141C14.1674 20.3232 15.1856 20.6141 16.2037 20.6141C17.2946 20.6141 18.3855 20.3232 19.331 19.7414C22.0218 17.9959 22.8218 14.4324 21.1491 11.6688ZM19.6219 17.2687C19.331 17.705 18.9673 17.9959 18.4582 18.0687C18.1673 18.0687 17.8037 18.2141 16.3492 17.6323C15.1129 17.0505 14.0947 16.1051 13.3674 15.0142C12.9311 14.5051 12.7129 13.8506 12.6402 13.196C12.6402 12.6142 12.8583 12.1052 13.222 11.7415C13.3674 11.5961 13.5129 11.5233 13.6583 11.5233H14.022C14.1674 11.5233 14.3129 11.5233 14.3856 11.8142C14.531 12.1779 14.8947 13.0506 14.8947 13.1233C14.9674 13.196 14.9674 13.3415 14.8947 13.4142C14.9674 13.5597 14.8947 13.7051 14.8219 13.7778C14.7492 13.8506 14.6765 13.996 14.6038 14.0687C14.4583 14.1415 14.3856 14.2869 14.4583 14.4324C14.7492 14.8687 15.1129 15.3051 15.4765 15.6687C15.9128 16.0323 16.3492 16.3233 16.8583 16.5414C17.0037 16.6142 17.1492 16.6142 17.2219 16.4687C17.2946 16.3233 17.6583 15.9596 17.8037 15.8142C17.9492 15.6687 18.0219 15.6687 18.1673 15.7414L19.331 16.3233C19.4764 16.396 19.6219 16.4687 19.6946 16.5414C19.7673 16.7596 19.7673 17.0505 19.6219 17.2687Z" fill="#13395B"/>
</svg>
